<!DOCTYPE svg PUBLIC "-//W3C//DTD SVG 1.1//EN" "http://www.w3.org/Graphics/SVG/1.1/DTD/svg11.dtd">
<!-- Uploaded to: SVG Repo, www.svgrepo.com, Transformed by: SVG Repo Mixer Tools -->
<svg width="800px" height="800px" viewBox="-2.4 -2.4 28.80 28.80" fill="none" xmlns="http://www.w3.org/2000/svg">
<g id="SVGRepo_bgCarrier" stroke-width="0">
<path transform="translate(-2.4, -2.4), scale(1.7999999999999998)" fill="#442768" d="M9.166.33a2.25 2.25 0 00-2.332 0l-5.25 3.182A2.25 2.25 0 00.5 5.436v5.128a2.25 2.25 0 001.084 1.924l5.25 3.182a2.25 2.25 0 002.332 0l5.25-3.182a2.25 2.25 0 001.084-1.924V5.436a2.25 2.25 0 00-1.084-1.924L9.166.33z" strokewidth="0"/>
</g>
<g id="SVGRepo_tracerCarrier" stroke-linecap="round" stroke-linejoin="round"/>
<g id="SVGRepo_iconCarrier"> <g id="Communication / Chat_Conversation"> <path id="Vector" d="M16 8H20C20.5523 8 21 8.44772 21 9V20L17.667 17.231C17.4875 17.0818 17.2608 17 17.0273 17H9C8.44771 17 8 16.5523 8 16V13M16 8V5C16 4.44772 15.5523 4 15 4H4C3.44772 4 3 4.44772 3 5V16.0003L6.33301 13.2308C6.51255 13.0817 6.73924 13 6.97266 13H8M16 8V12C16 12.5523 15.5523 13 15 13H8" stroke="#E0D9F6" stroke-width="2" stroke-linecap="round" stroke-linejoin="round"/> </g> </g>
</svg>