<!DOCTYPE svg PUBLIC "-//W3C//DTD SVG 1.1//EN" "http://www.w3.org/Graphics/SVG/1.1/DTD/svg11.dtd">
<!-- Uploaded to: SVG Repo, www.svgrepo.com, Transformed by: SVG Repo Mixer Tools -->
<svg fill="#E0D9F6" width="800px" height="800px" viewBox="-2.4 -2.4 28.80 28.80" xmlns="http://www.w3.org/2000/svg" stroke="#E0D9F6">
<g id="SVGRepo_bgCarrier" stroke-width="0">
<path transform="translate(-2.4, -2.4), scale(1.7999999999999998)" fill="#442768" d="M9.166.33a2.25 2.25 0 00-2.332 0l-5.25 3.182A2.25 2.25 0 00.5 5.436v5.128a2.25 2.25 0 001.084 1.924l5.25 3.182a2.25 2.25 0 002.332 0l5.25-3.182a2.25 2.25 0 001.084-1.924V5.436a2.25 2.25 0 00-1.084-1.924L9.166.33z" strokewidth="0"/>
</g>
<g id="SVGRepo_tracerCarrier" stroke-linecap="round" stroke-linejoin="round"/>
<g id="SVGRepo_iconCarrier">
<path d="M3.299 17.596c.432 1.332 1.745 2.182 3.146 2.182H6.5A2.78 2.78 0 0 0 9.223 22c.457 0 .884-.115 1.262-.313a.992.992 0 0 0 .515-.882V3.027a.997.997 0 0 0-.785-.983 2.324 2.324 0 0 0-1.479.201c-.744.356-1.18 1.151-1.18 1.978v.055a2.778 2.778 0 0 0-2.744 4.433A3.327 3.327 0 0 0 2 12c0 1.178.611 2.211 1.533 2.812-.43.771-.571 1.746-.234 2.784zm15.889-8.885a2.778 2.778 0 0 0-2.744-4.433v-.055c0-.826-.437-1.622-1.181-1.978a2.32 2.32 0 0 0-1.478-.201.998.998 0 0 0-.785.983v17.777c0 .365.192.712.516.882.378.199.804.314 1.261.314a2.78 2.78 0 0 0 2.723-2.223h.056c1.4 0 2.714-.85 3.146-2.182.337-1.038.196-2.013-.234-2.784A3.35 3.35 0 0 0 22 12a3.327 3.327 0 0 0-2.812-3.289z"/>
</g>
</svg>